<svg width="20" height="21" viewBox="0 0 20 21" fill="none" xmlns="http://www.w3.org/2000/svg">
<path d="M7.7085 8.04163C9.19183 8.58329 10.8085 8.58329 12.2918 8.04163" stroke="#292D32" stroke-width="1.5" stroke-linecap="round" stroke-linejoin="round"/>
<path d="M14.0166 2.16663H5.98327C4.20827 2.16663 2.7666 3.61663 2.7666 5.38329V17.125C2.7666 18.625 3.8416 19.2583 5.15827 18.5333L9.22493 16.275C9.65827 16.0333 10.3583 16.0333 10.7833 16.275L14.8499 18.5333C16.1666 19.2666 17.2416 18.6333 17.2416 17.125V5.38329C17.2333 3.61663 15.7916 2.16663 14.0166 2.16663Z" stroke="#292D32" stroke-width="1.5" stroke-linecap="round" stroke-linejoin="round"/>
<path d="M14.0166 2.16663H5.98327C4.20827 2.16663 2.7666 3.61663 2.7666 5.38329V17.125C2.7666 18.625 3.8416 19.2583 5.15827 18.5333L9.22493 16.275C9.65827 16.0333 10.3583 16.0333 10.7833 16.275L14.8499 18.5333C16.1666 19.2666 17.2416 18.6333 17.2416 17.125V5.38329C17.2333 3.61663 15.7916 2.16663 14.0166 2.16663Z" stroke="#292D32" stroke-width="1.5" stroke-linecap="round" stroke-linejoin="round"/>
</svg>
