<svg width="24" height="16" viewBox="0 0 24 16" fill="none" xmlns="http://www.w3.org/2000/svg">
<g clip-path="url(#clip0_25_30)">
<path d="M24 5.37935H0V0.551751C0 0.323236 0.185297 0.137939 0.413812 0.137939H23.5862C23.8147 0.137939 24 0.323236 24 0.551751V5.37935Z" fill="#FAB446"/>
<path d="M23.5861 15.862H0.413812C0.185297 15.862 0 15.6767 0 15.4482V10.6206H24V15.4482C24 15.6767 23.8147 15.862 23.5861 15.862Z" fill="#73AF00"/>
<path d="M24 5.37915H0V10.6202H24V5.37915Z" fill="#F5F5F5"/>
<path d="M12 10.2241C10.7736 10.2241 9.77588 9.22644 9.77588 8C9.77588 6.77357 10.7736 5.77588 12 5.77588C13.2264 5.77588 14.2241 6.77357 14.2241 8C14.2241 9.22644 13.2264 10.2241 12 10.2241ZM12 6.18965C11.0017 6.18965 10.1896 7.00166 10.1896 8C10.1896 8.99835 11.0017 9.81036 12 9.81036C12.9983 9.81036 13.8104 8.99835 13.8104 8C13.8104 7.00166 12.9983 6.18965 12 6.18965Z" fill="#41479B"/>
<path d="M11.9999 8.25208C12.1392 8.25208 12.2521 8.1392 12.2521 7.99994C12.2521 7.86069 12.1392 7.7478 11.9999 7.7478C11.8607 7.7478 11.7478 7.86069 11.7478 7.99994C11.7478 8.1392 11.8607 8.25208 11.9999 8.25208Z" fill="#41479B"/>
<path d="M11.9999 8.03781L11.3591 8.10249L9.98267 8.03781V7.96215L11.3591 7.89746L11.9999 7.96215V8.03781Z" fill="#41479B"/>
<path d="M12 8.03781L12.6408 8.10249L14.0172 8.03781V7.96215L12.6408 7.89746L12 7.96215V8.03781Z" fill="#41479B"/>
<path d="M11.9621 7.99989L11.8975 7.3591L11.9621 5.98267H12.0378L12.1025 7.3591L12.0378 7.99989H11.9621Z" fill="#41479B"/>
<path d="M11.9621 8L11.8975 8.64078L11.9621 10.0172H12.0378L12.1025 8.64078L12.0378 8H11.9621Z" fill="#41479B"/>
<path d="M11.9733 8.02672L11.4744 7.61942L10.5469 6.60036L10.6004 6.54688L11.6194 7.47444L12.0267 7.97328L11.9733 8.02672Z" fill="#41479B"/>
<path d="M11.9734 8.02683L12.3807 8.52567L13.3997 9.45323L13.4532 9.39975L12.5257 8.38069L12.0268 7.97339L11.9734 8.02683Z" fill="#41479B"/>
<path d="M11.9734 7.97328L12.3807 7.47444L13.3997 6.54688L13.4532 6.60036L12.5257 7.61942L12.0268 8.02672L11.9734 7.97328Z" fill="#41479B"/>
<path d="M11.9733 7.97339L11.4744 8.38069L10.5469 9.39975L10.6004 9.45323L11.6194 8.52567L12.0267 8.02683L11.9733 7.97339Z" fill="#41479B"/>
<path d="M12.0145 8.03503L11.4472 8.33999L10.1508 8.80696L10.1218 8.73707L11.3687 8.15057L11.9855 7.96509L12.0145 8.03503Z" fill="#41479B"/>
<path d="M12.0146 8.03499L12.6313 7.84951L13.8782 7.26301L13.8493 7.19312L12.5529 7.66008L11.9856 7.96505L12.0146 8.03499Z" fill="#41479B"/>
<path d="M11.9651 8.01445L11.6601 7.44717L11.1931 6.15079L11.263 6.12183L11.8495 7.36875L12.035 7.98548L11.9651 8.01445Z" fill="#41479B"/>
<path d="M11.9651 8.01456L12.1506 8.6313L12.7371 9.87822L12.807 9.84925L12.34 8.55288L12.035 7.9856L11.9651 8.01456Z" fill="#41479B"/>
<path d="M11.9855 8.03499L11.3687 7.84951L10.1218 7.26301L10.1508 7.19312L11.4472 7.66008L12.0145 7.96505L11.9855 8.03499Z" fill="#41479B"/>
<path d="M11.9856 8.03503L12.5529 8.33999L13.8493 8.80696L13.8782 8.73707L12.6313 8.15057L12.0146 7.96509L11.9856 8.03503Z" fill="#41479B"/>
<path d="M11.9651 7.98548L12.1506 7.36875L12.7371 6.12183L12.807 6.15079L12.34 7.44717L12.035 8.01445L11.9651 7.98548Z" fill="#41479B"/>
<path d="M11.9651 7.9856L11.6601 8.55288L11.1931 9.84925L11.263 9.87822L11.8495 8.6313L12.035 8.01456L11.9651 7.9856Z" fill="#41479B"/>
<path d="M12 8.34016C12.1879 8.34016 12.3402 8.18788 12.3402 8.00004C12.3402 7.81219 12.1879 7.65991 12 7.65991C11.8122 7.65991 11.6599 7.81219 11.6599 8.00004C11.6599 8.18788 11.8122 8.34016 12 8.34016Z" fill="#F5F5F5"/>
<path d="M12.0001 8.20405C12.1127 8.20405 12.204 8.11274 12.204 8.0001C12.204 7.88746 12.1127 7.79614 12.0001 7.79614C11.8875 7.79614 11.7961 7.88746 11.7961 8.0001C11.7961 8.11274 11.8875 8.20405 12.0001 8.20405Z" fill="#41479B"/>
</g>
<defs>
<clipPath id="clip0_25_30">
<rect width="24" height="16" fill="white"/>
</clipPath>
</defs>
</svg>
