<svg width="40" height="41" viewBox="0 0 40 41" fill="none" xmlns="http://www.w3.org/2000/svg">
<g clip-path="url(#clip0_15_57)">
<mask id="mask0_15_57" style="mask-type:luminance" maskUnits="userSpaceOnUse" x="0" y="0" width="40" height="41">
<path d="M40 0.280029H0V40.28H40V0.280029Z" fill="white"/>
</mask>
<g mask="url(#mask0_15_57)">
<path fill-rule="evenodd" clip-rule="evenodd" d="M20 40.28C8.97195 40.28 0 31.3081 0 20.28C0 9.25198 8.97195 0.280029 20 0.280029C31.028 0.280029 40 9.25198 40 20.28C40 31.3081 31.028 40.28 20 40.28ZM30.3717 27.3059C30.6183 27.3059 30.819 27.1053 30.819 26.8586V14.3026L20.6432 22.3832C20.4549 22.5328 20.2273 22.6076 19.9999 22.6076C19.7725 22.6076 19.545 22.5328 19.3566 22.3832L9.18094 14.3026V26.8586C9.18094 27.1053 9.38164 27.3059 9.6282 27.3059H30.3717ZM28.8123 13.2542L20 20.2522L11.1876 13.2542H28.8123ZM32.888 13.7014V26.8588C32.888 28.2462 31.7591 29.375 30.3717 29.375H9.6282C8.2407 29.375 7.11203 28.2462 7.11203 26.8588V13.7014C7.11203 12.314 8.24078 11.1853 9.6282 11.1853H30.3717C31.7591 11.1852 32.888 12.314 32.888 13.7014Z" fill="#926D57"/>
</g>
</g>
<defs>
<clipPath id="clip0_15_57">
<rect width="40" height="41" fill="white"/>
</clipPath>
</defs>
</svg>
