<svg width="50" height="50" viewBox="0 0 50 50" fill="none" xmlns="http://www.w3.org/2000/svg">
<g clip-path="url(#clip0_109_29)">
<path d="M26.852 5.17236H0.925933C0.414554 5.17236 0 5.55832 0 6.03443V40.5172C0 40.9933 0.414554 41.3793 0.925933 41.3793H26.852C27.3634 41.3793 27.778 40.9933 27.778 40.5172V6.03443C27.778 5.55832 27.3634 5.17236 26.852 5.17236Z" fill="#FAFBFB"/>
<path d="M23.1483 0H4.62966C3.40225 0.00136884 2.22553 0.455933 1.35762 1.26398C0.489709 2.07203 0.00147025 3.16759 0 4.31034V45.6897C0.00147025 46.8324 0.489709 47.928 1.35762 48.736C2.22553 49.5441 3.40225 49.9986 4.62966 50H23.1483C24.3757 49.9986 25.5524 49.5441 26.4204 48.736C27.2883 47.928 27.7765 46.8324 27.778 45.6897V4.31034C27.7765 3.16759 27.2883 2.07203 26.4204 1.26398C25.5524 0.455933 24.3757 0.00136884 23.1483 0ZM1.85187 6.89655H25.9261V39.6552H1.85187V6.89655Z" fill="#00A6FF"/>
<path d="M38.8896 15.9311V16.3794C38.8896 16.608 38.7921 16.8273 38.6184 16.9889C38.4448 17.1506 38.2092 17.2414 37.9637 17.2414H12.0376C11.3015 17.2394 10.5963 16.9662 10.0758 16.4817C9.55533 15.9971 9.26196 15.3405 9.25977 14.6552C9.26506 13.9662 9.56103 13.3067 10.0838 12.819C10.3398 12.5796 10.6443 12.39 10.9798 12.2612C11.3152 12.1325 11.6748 12.0671 12.0376 12.069H33.8155C33.967 12.0695 34.1161 12.1043 34.25 12.1704C34.3839 12.2365 34.4985 12.3319 34.584 12.4483C35.4694 13.687 36.7626 14.6247 38.2692 15.1207C38.4847 15.1878 38.6639 15.3299 38.7692 15.5173C38.8498 15.6422 38.8914 15.7854 38.8896 15.9311Z" fill="#FF9A00"/>
<path d="M18.5189 4.31032H17.5929C17.3474 4.31032 17.1118 4.21949 16.9382 4.05783C16.7645 3.89616 16.667 3.67689 16.667 3.44825C16.667 3.21962 16.7645 3.00035 16.9382 2.83868C17.1118 2.67701 17.3474 2.58618 17.5929 2.58618H18.5189C18.7644 2.58618 18.9999 2.67701 19.1736 2.83868C19.3472 3.00035 19.4448 3.21962 19.4448 3.44825C19.4448 3.67689 19.3472 3.89616 19.1736 4.05783C18.9999 4.21949 18.7644 4.31032 18.5189 4.31032Z" fill="#006EF5"/>
<path d="M13.8886 4.31032H9.25894C9.01337 4.31032 8.77785 4.21949 8.60421 4.05783C8.43056 3.89616 8.33301 3.67689 8.33301 3.44825C8.33301 3.21962 8.43056 3.00035 8.60421 2.83868C8.77785 2.67701 9.01337 2.58618 9.25894 2.58618H13.8886C14.1342 2.58618 14.3697 2.67701 14.5433 2.83868C14.717 3.00035 14.8145 3.21962 14.8145 3.44825C14.8145 3.67689 14.717 3.89616 14.5433 4.05783C14.3697 4.21949 14.1342 4.31032 13.8886 4.31032Z" fill="#006EF5"/>
<path d="M13.8891 47.4137C15.4233 47.4137 16.6669 46.2559 16.6669 44.8275C16.6669 43.3992 15.4233 42.2413 13.8891 42.2413C12.355 42.2413 11.1113 43.3992 11.1113 44.8275C11.1113 46.2559 12.355 47.4137 13.8891 47.4137Z" fill="#006EF5"/>
<path d="M21.2964 45.6896H19.4445C19.1989 45.6896 18.9634 45.5988 18.7898 45.4371C18.6161 45.2754 18.5186 45.0562 18.5186 44.8275C18.5186 44.5989 18.6161 44.3796 18.7898 44.2179C18.9634 44.0563 19.1989 43.9655 19.4445 43.9655H21.2964C21.5419 43.9655 21.7774 44.0563 21.9511 44.2179C22.1247 44.3796 22.2223 44.5989 22.2223 44.8275C22.2223 45.0562 22.1247 45.2754 21.9511 45.4371C21.7774 45.5988 21.5419 45.6896 21.2964 45.6896Z" fill="#006EF5"/>
<path d="M8.33346 45.6896H6.4816C6.23602 45.6896 6.00051 45.5988 5.82686 45.4371C5.65322 45.2754 5.55566 45.0562 5.55566 44.8275C5.55566 44.5989 5.65322 44.3796 5.82686 44.2179C6.00051 44.0563 6.23602 43.9655 6.4816 43.9655H8.33346C8.57903 43.9655 8.81455 44.0563 8.9882 44.2179C9.16184 44.3796 9.25939 44.5989 9.25939 44.8275C9.25939 45.0562 9.16184 45.2754 8.9882 45.4371C8.81455 45.5988 8.57903 45.6896 8.33346 45.6896Z" fill="#006EF5"/>
<path d="M29.6303 22.4137V31.0344H41.6674C41.913 31.0344 42.1485 31.1252 42.3222 31.2869C42.4958 31.4486 42.5934 31.6679 42.5934 31.8965V36.2068C42.5919 36.6637 42.3963 37.1014 42.0493 37.4245C41.7024 37.7475 41.2322 37.9296 40.7415 37.931H12.0376C11.3015 37.9289 10.5963 37.6558 10.0758 37.1712C9.55535 36.6867 9.26198 36.03 9.25978 35.3448V14.6551C9.25864 14.3579 9.3151 14.063 9.42645 13.7844C9.61429 14.2901 9.96669 14.7287 10.4347 15.0392C10.9026 15.3498 11.4629 15.5168 12.0376 15.5172H40.7415C41.2322 15.5185 41.7024 15.7006 42.0493 16.0237C42.3963 16.3467 42.5919 16.7845 42.5934 17.2413V21.5517C42.5934 21.7803 42.4958 21.9996 42.3222 22.1612C42.1485 22.3229 41.913 22.4137 41.6674 22.4137H29.6303Z" fill="#FFB74F"/>
<path d="M42.5923 20.6897H29.6292C28.6065 20.6897 27.7773 21.4616 27.7773 22.4138V31.0345C27.7773 31.9867 28.6065 32.7587 29.6292 32.7587H42.5923C43.615 32.7587 44.4441 31.9867 44.4441 31.0345V22.4138C44.4441 21.4616 43.615 20.6897 42.5923 20.6897Z" fill="#57555C"/>
<path d="M37.0376 29.3104C38.5717 29.3104 39.8154 28.1525 39.8154 26.7241C39.8154 25.2958 38.5717 24.1379 37.0376 24.1379C35.5034 24.1379 34.2598 25.2958 34.2598 26.7241C34.2598 28.1525 35.5034 29.3104 37.0376 29.3104Z" fill="#FFDF47"/>
<path d="M40.7408 17.2414C45.8546 17.2414 50.0001 13.3818 50.0001 8.62069C50.0001 3.85961 45.8546 0 40.7408 0C35.627 0 31.4814 3.85961 31.4814 8.62069C31.4814 13.3818 35.627 17.2414 40.7408 17.2414Z" fill="#FFDF47"/>
<path d="M41.6668 7.75859H39.8149C39.5693 7.75859 39.3338 7.66776 39.1602 7.50609C38.9865 7.34442 38.889 7.12515 38.889 6.89652C38.889 6.66788 38.9865 6.44861 39.1602 6.28694C39.3338 6.12527 39.5693 6.03445 39.8149 6.03445H42.5927C42.8383 6.03445 43.0738 5.94362 43.2474 5.78195C43.4211 5.62029 43.5186 5.40102 43.5186 5.17238C43.5186 4.94375 43.4211 4.72447 43.2474 4.56281C43.0738 4.40114 42.8383 4.31031 42.5927 4.31031H41.6668C41.6668 4.08168 41.5692 3.86241 41.3956 3.70074C41.2219 3.53907 40.9864 3.44824 40.7408 3.44824C40.4953 3.44824 40.2598 3.53907 40.0861 3.70074C39.9125 3.86241 39.8149 4.08168 39.8149 4.31031C39.0782 4.31031 38.3716 4.58279 37.8507 5.06779C37.3298 5.5528 37.0371 6.21061 37.0371 6.89652C37.0371 7.58242 37.3298 8.24023 37.8507 8.72524C38.3716 9.21025 39.0782 9.48272 39.8149 9.48272H41.6668C41.9123 9.48272 42.1479 9.57355 42.3215 9.73522C42.4952 9.89689 42.5927 10.1162 42.5927 10.3448C42.5927 10.5734 42.4952 10.7927 42.3215 10.9544C42.1479 11.116 41.9123 11.2069 41.6668 11.2069H38.889C38.6434 11.2069 38.4079 11.2977 38.2342 11.4594C38.0606 11.621 37.963 11.8403 37.963 12.0689C37.963 12.2976 38.0606 12.5168 38.2342 12.6785C38.4079 12.8402 38.6434 12.931 38.889 12.931H39.8149C39.8149 13.1596 39.9125 13.3789 40.0861 13.5406C40.2598 13.7022 40.4953 13.7931 40.7408 13.7931C40.9864 13.7931 41.2219 13.7022 41.3956 13.5406C41.5692 13.3789 41.6668 13.1596 41.6668 12.931C42.4035 12.931 43.11 12.6585 43.631 12.1735C44.1519 11.6885 44.4446 11.0307 44.4446 10.3448C44.4446 9.65889 44.1519 9.00108 43.631 8.51607C43.11 8.03106 42.4035 7.75859 41.6668 7.75859Z" fill="#FFA91F"/>
</g>
<defs>
<clipPath id="clip0_109_29">
<rect width="50" height="50" fill="white"/>
</clipPath>
</defs>
</svg>
