<svg width="60" height="60" viewBox="0 0 60 60" fill="none" xmlns="http://www.w3.org/2000/svg">
<g clip-path="url(#clip0_110_47)">
<path d="M30 32.2974C28.2774 32.2974 26.8804 33.6938 26.8804 35.417C26.8804 36.5722 27.5102 37.5785 28.4438 38.1181V41.5863H31.5562V38.1181C32.4899 37.5787 33.1197 36.5722 33.1197 35.417C33.1197 33.6938 31.7228 32.2974 30 32.2974Z" fill="#00A6FF"/>
<path d="M30.0012 17.1699C27.3789 17.1699 25.2461 19.303 25.2461 21.925V26.9889H34.7559V21.925C34.7557 19.3034 32.6228 17.1699 30.0012 17.1699Z" fill="#00A6FF"/>
<path d="M29.9995 0C13.4314 0 0 13.4318 0 29.9999C0 46.5676 13.4314 59.9998 29.9995 59.9998C46.5676 59.9998 60 46.5674 60 29.9999C60 13.4318 46.5676 0 29.9995 0ZM39.2177 45.4242H20.7827C18.8359 45.4242 17.2575 43.8457 17.2575 41.8983V30.5143C17.2575 28.8161 18.4589 27.3979 20.0581 27.0643V21.9248C20.0581 16.4429 24.5182 11.9824 30.0005 11.9824C35.4824 11.9824 39.9425 16.4425 39.9425 21.9248V27.0643C41.5411 27.3989 42.7425 28.8161 42.7425 30.5143V41.8983C42.7425 43.8455 41.1645 45.4242 39.2177 45.4242Z" fill="#00A6FF"/>
</g>
<defs>
<clipPath id="clip0_110_47">
<rect width="60" height="60" fill="white"/>
</clipPath>
</defs>
</svg>
