<svg width="130" height="157" viewBox="0 0 130 157" fill="none" xmlns="http://www.w3.org/2000/svg">
<g clip-path="url(#clip0_12_38)">
<mask id="mask0_12_38" style="mask-type:luminance" maskUnits="userSpaceOnUse" x="0" y="0" width="130" height="157">
<path d="M130 0.5H0V156.002H130V0.5Z" fill="white"/>
</mask>
<g mask="url(#mask0_12_38)">
<path d="M110.661 87.9206H98.0231V46.1612C98.0231 27.9532 83.2079 13.1098 64.9717 13.1098C46.7355 13.1098 31.9487 27.9532 31.9487 46.1612V87.9206H19.3388V46.1612C19.3388 20.998 39.8086 0.5 65 0.5C90.1914 0.5 110.661 20.998 110.661 46.1612V87.9206Z" fill="#72716F"/>
<path d="M130 151.111C130 153.825 127.795 156.002 125.109 156.002H4.89126C2.20531 156.002 0 153.797 0 151.111V72.9923C0 70.2781 2.20531 68.1011 4.89126 68.1011H125.109C127.823 68.1011 130 70.3064 130 72.9923V151.111Z" fill="#F2CB30"/>
<path d="M130 151.111V103.245C90.3893 136.748 33.3058 149.33 0.933014 153.967C1.80948 155.182 3.25141 156.002 4.89126 156.002H125.109C127.795 156.002 130 153.797 130 151.111Z" fill="#EAB531"/>
<path d="M75.7438 98.8058C75.7438 92.8684 70.9374 88.062 65 88.062C59.0626 88.062 54.2562 92.8684 54.2562 98.8058C54.2562 102.34 55.9809 105.478 58.6103 107.429L55.1892 131.716H74.8108L71.3897 107.429C74.0191 105.478 75.7438 102.368 75.7438 98.8058Z" fill="#58595A"/>
<path d="M4.09961 77.3747V94.1973C4.55198 87.0442 7.97303 71.5222 29.4889 71.5222H9.98043C6.72901 71.4939 4.09961 74.1516 4.09961 77.3747Z" fill="#F7DB5E"/>
<path d="M55.1892 131.744C55.1892 131.744 69.7499 127.616 71.3897 107.457L74.8108 131.744H55.1892Z" fill="#3E3D40"/>
</g>
</g>
<defs>
<clipPath id="clip0_12_38">
<rect width="130" height="157" fill="white"/>
</clipPath>
</defs>
</svg>
