<svg width="101" height="100" viewBox="0 0 101 100" fill="none" xmlns="http://www.w3.org/2000/svg">
<g clip-path="url(#clip0_22_34)">
<path d="M50.5 100C78.1142 100 100.5 77.6142 100.5 50C100.5 22.3858 78.1142 0 50.5 0C22.8858 0 0.5 22.3858 0.5 50C0.5 77.6142 22.8858 100 50.5 100Z" fill="#926D57"/>
<path d="M50.9685 85C41.6943 85 32.7999 81.3125 26.242 74.7488C19.6842 68.185 16 59.2826 16 50.0001C16 40.7175 19.6842 31.8152 26.242 25.2514C32.7999 18.6877 41.6943 15.0002 50.9685 15.0002C56.418 14.9821 61.7931 16.2657 66.6475 18.7444C66.9337 18.8897 67.1885 19.0901 67.3973 19.334C67.6061 19.578 67.7649 19.8607 67.8646 20.166C67.9643 20.4714 68.0029 20.7934 67.9783 21.1137C67.9536 21.434 67.8662 21.7463 67.7209 22.0327C67.5757 22.3192 67.3755 22.5742 67.1318 22.7832C66.8881 22.9923 66.6056 23.1512 66.3005 23.251C65.9954 23.3507 65.6737 23.3894 65.3537 23.3647C65.0337 23.34 64.7217 23.2525 64.4355 23.1071C60.2714 20.9591 55.6531 19.8426 50.9685 19.8513C45.0188 19.8513 39.2027 21.6168 34.2553 24.9246C29.3078 28.2324 25.4512 32.9339 23.1729 38.4351C20.8945 43.9362 20.2968 49.9899 21.4551 55.831C22.6135 61.672 25.476 67.0383 29.6808 71.2514C33.8856 75.4645 39.2439 78.3354 45.0785 79.5011C50.9131 80.6668 56.962 80.075 62.4607 77.8006C67.9593 75.5262 72.6609 71.6712 75.971 66.7229C79.2812 61.7746 81.0513 55.9551 81.0578 50.0001C81.0747 49.729 81.0747 49.4572 81.0578 49.1861C80.9974 48.5385 81.1965 47.8934 81.6113 47.3927C82.0261 46.8921 82.6227 46.5768 83.2697 46.5164C83.9168 46.4559 84.5613 46.6552 85.0615 47.0704C85.5617 47.4856 85.8767 48.0827 85.9371 48.7303V50.0001C85.9285 59.28 82.2415 68.1774 75.6855 74.7392C69.1295 81.3011 60.2401 84.9914 50.9685 85Z" fill="white"/>
<path d="M50.383 61.1024C50.0669 61.1071 49.7532 61.0459 49.4619 60.9225C49.1707 60.7992 48.9083 60.6165 48.6915 60.3861L32.9801 44.9536C32.5232 44.4958 32.2666 43.8751 32.2666 43.228C32.2666 42.581 32.5232 41.9603 32.9801 41.5025C33.4471 41.0509 34.071 40.7985 34.7204 40.7985C35.3697 40.7985 35.9937 41.0509 36.4607 41.5025L50.4156 55.2745L81.8059 24.3769C82.2729 23.9254 82.8969 23.673 83.5462 23.673C84.1956 23.673 84.8195 23.9254 85.2865 24.3769C85.7434 24.8348 86 25.4554 86 26.1025C86 26.7496 85.7434 27.3702 85.2865 27.8281L52.1721 60.3861C51.9393 60.6224 51.6602 60.808 51.3523 60.9313C51.0444 61.0545 50.7145 61.1128 50.383 61.1024Z" fill="white"/>
</g>
<defs>
<clipPath id="clip0_22_34">
<rect width="101" height="100" fill="white"/>
</clipPath>
</defs>
</svg>
