<svg width="12" height="17" viewBox="0 0 12 17" fill="none" xmlns="http://www.w3.org/2000/svg">
<g clip-path="url(#clip0_104_71)">
<path d="M11.2506 1.3125V15.5937C11.2561 15.7162 11.2252 15.8376 11.1618 15.9425C11.0984 16.0474 11.0054 16.1313 10.8944 16.1834C10.7834 16.2355 10.6595 16.2537 10.5383 16.2355C10.4171 16.2173 10.3039 16.1636 10.2131 16.0812L5.62562 11.8063L1.03812 16.0813C0.947333 16.1637 0.834187 16.2174 0.712945 16.2355C0.591703 16.2537 0.467793 16.2356 0.356834 16.1835C0.245876 16.1313 0.152836 16.0475 0.0894441 15.9426C0.026052 15.8376 -0.00485506 15.7163 0.000619515 15.5938V1.3125C-0.00698806 0.972882 0.120278 0.644086 0.354556 0.398094C0.588834 0.152103 0.911035 0.00895833 1.25062 0H10.0006C10.3402 0.00895833 10.6624 0.152103 10.8967 0.398094C11.131 0.644086 11.2582 0.972882 11.2506 1.3125Z" fill="#FFB300"/>
<path d="M5.62562 10.9501V11.8063L1.03812 16.0813C0.947333 16.1637 0.834187 16.2174 0.712945 16.2355C0.591703 16.2537 0.467793 16.2356 0.356834 16.1835C0.245876 16.1313 0.152836 16.0475 0.0894441 15.9426C0.026052 15.8376 -0.00485506 15.7163 0.000619515 15.5938V1.3125C-0.00698806 0.972882 0.120278 0.644086 0.354556 0.398094C0.588834 0.152103 0.911035 0.00895833 1.25062 0V0.625C1.07671 0.633663 0.913306 0.710864 0.796175 0.839709C0.679043 0.968554 0.617718 1.13855 0.62562 1.3125L0.61312 15.625L5.62562 10.9501Z" fill="#FFA000"/>
</g>
<defs>
<clipPath id="clip0_104_71">
<rect width="12" height="17" fill="white"/>
</clipPath>
</defs>
</svg>
