<svg width="40" height="41" viewBox="0 0 40 41" fill="none" xmlns="http://www.w3.org/2000/svg">
<g clip-path="url(#clip0_15_47)">
<mask id="mask0_15_47" style="mask-type:luminance" maskUnits="userSpaceOnUse" x="0" y="0" width="40" height="41">
<path d="M40 0.280029H0V40.28H40V0.280029Z" fill="white"/>
</mask>
<g mask="url(#mask0_15_47)">
<path d="M20 40.28C31.0457 40.28 40 31.3257 40 20.28C40 9.23433 31.0457 0.280029 20 0.280029C8.95431 0.280029 0 9.23433 0 20.28C0 31.3257 8.95431 40.28 20 40.28Z" fill="#926D57"/>
<path d="M29.3228 8.56348H11.1496C9.79528 8.56348 8.69292 9.66584 8.69292 11.0202V22.4532C8.69292 23.8076 9.79528 24.9099 11.1496 24.9099H13.0709C13.0709 24.9099 12.5984 29.6973 8.22047 31.9965C8.22047 31.9965 16.5984 31.7446 20.5669 24.9099H29.3543C30.7087 24.9099 31.811 23.8076 31.811 22.4532V11.0202C31.811 9.66584 30.7087 8.56348 29.3228 8.56348Z" fill="white"/>
<path d="M11.937 19.3665V18.1067C12.1575 18.2957 12.4095 18.4532 12.6929 18.5477C12.9764 18.6421 13.2284 18.7051 13.5118 18.7051C13.6693 18.7051 13.8268 18.7051 13.9213 18.6736C14.0472 18.6421 14.1417 18.6106 14.2362 18.5477C14.3307 18.4847 14.3622 18.4217 14.4252 18.3587C14.4567 18.2957 14.4882 18.2012 14.4882 18.1382C14.4882 18.0122 14.4567 17.9177 14.3937 17.8547C14.3307 17.7602 14.2362 17.6973 14.1417 17.6028C14.0472 17.5398 13.8898 17.4453 13.7638 17.3823C13.6063 17.3193 13.4488 17.2563 13.2913 17.1618C12.8504 16.9728 12.5039 16.7524 12.315 16.5004C12.0945 16.2484 12 15.902 12 15.524C12 15.2406 12.063 14.9886 12.189 14.7681C12.315 14.5477 12.4724 14.3902 12.6614 14.2327C12.8504 14.1067 13.1024 13.9807 13.3858 13.9177C13.6693 13.8547 13.9528 13.8232 14.2362 13.8232C14.5197 13.8232 14.8032 13.8547 15.0236 13.8862C15.2441 13.9177 15.4646 13.9807 15.6535 14.0437V15.2406C15.5591 15.1776 15.4646 15.1146 15.3386 15.0516C15.2126 14.9886 15.1181 14.9571 14.9921 14.9256C14.8661 14.8941 14.7402 14.8626 14.6457 14.8626C14.5197 14.8311 14.4252 14.8311 14.2992 14.8311C14.1417 14.8311 14.0158 14.8311 13.8898 14.8626C13.7638 14.8941 13.6693 14.9256 13.5748 14.9886C13.4803 15.0516 13.4173 15.0831 13.3858 15.1776C13.3543 15.2406 13.3228 15.3351 13.3228 15.398C13.3228 15.4925 13.3543 15.587 13.3858 15.65C13.4488 15.713 13.5118 15.8075 13.6063 15.8705C13.7008 15.9335 13.7953 15.9965 13.9528 16.0595C14.0787 16.1225 14.2362 16.1854 14.3937 16.2484C14.6142 16.3429 14.8346 16.4374 14.9921 16.5634C15.1811 16.6579 15.3386 16.7839 15.4646 16.9099C15.5906 17.0358 15.685 17.1933 15.748 17.3823C15.811 17.5398 15.8425 17.7602 15.8425 17.9807C15.8425 18.2957 15.7795 18.5477 15.6535 18.7681C15.5276 18.9886 15.3701 19.1461 15.1496 19.3036C14.9291 19.4295 14.7087 19.524 14.4252 19.587C14.1417 19.65 13.8583 19.6815 13.5748 19.6815C13.2598 19.6815 12.9764 19.65 12.6929 19.587C12.378 19.5555 12.126 19.4925 11.937 19.3665Z" fill="#926D57"/>
<path d="M23.1811 19.587H21.9213V16.1854C21.9213 15.8075 21.9528 15.4295 21.9843 14.9571H21.9528C21.8898 15.3036 21.8268 15.5555 21.7638 15.713L20.4409 19.5555H19.4016L18.0472 15.7445C18.0157 15.65 17.9528 15.3665 17.8583 14.9571H17.8268C17.8583 15.524 17.8898 15.9965 17.8898 16.4374V19.587H16.7244V13.9177H18.5827L19.748 17.2878C19.8425 17.5713 19.9055 17.8232 19.937 18.1067H20C20.063 17.7917 20.1575 17.5083 20.2205 17.2878L21.3858 13.9492H23.2126V19.587H23.1811Z" fill="#926D57"/>
<path d="M24.2205 19.3665V18.1067C24.4409 18.2957 24.6929 18.4532 24.9764 18.5477C25.2598 18.6421 25.5118 18.7051 25.7953 18.7051C25.9528 18.7051 26.1102 18.7051 26.2047 18.6736C26.3307 18.6421 26.4252 18.6106 26.5197 18.5477C26.6142 18.4847 26.6457 18.4217 26.7087 18.3587C26.7402 18.2957 26.7717 18.2012 26.7717 18.1382C26.7717 18.0122 26.7402 17.9177 26.6772 17.8547C26.6142 17.7602 26.5197 17.6973 26.4252 17.6028C26.3307 17.5398 26.1732 17.4453 26.0472 17.3823C25.8898 17.3193 25.7323 17.2563 25.5748 17.1618C25.1339 16.9728 24.7874 16.7524 24.5984 16.5004C24.378 16.2484 24.2835 15.902 24.2835 15.524C24.2835 15.2406 24.3465 14.9886 24.4724 14.7681C24.5984 14.5477 24.7559 14.3902 24.9449 14.2327C25.1339 14.1067 25.3858 13.9807 25.6693 13.9177C25.9528 13.8547 26.2362 13.8232 26.5197 13.8232C26.8031 13.8232 27.0866 13.8547 27.3071 13.8862C27.5276 13.9177 27.748 13.9807 27.937 14.0437V15.2406C27.8425 15.1776 27.748 15.1146 27.622 15.0516C27.4961 14.9886 27.4016 14.9571 27.2756 14.9256C27.1496 14.8941 27.0236 14.8626 26.9291 14.8626C26.8032 14.8311 26.7087 14.8311 26.5827 14.8311C26.4252 14.8311 26.2992 14.8311 26.1732 14.8626C26.0472 14.8941 25.9528 14.9256 25.8583 14.9886C25.7638 15.0516 25.7008 15.0831 25.6693 15.1776C25.6378 15.2406 25.6063 15.3351 25.6063 15.398C25.6063 15.4925 25.6378 15.587 25.6693 15.65C25.7323 15.713 25.7953 15.8075 25.8898 15.8705C25.9843 15.9335 26.0787 15.9965 26.2362 16.0595C26.3622 16.1225 26.5197 16.1854 26.6772 16.2484C26.8976 16.3429 27.1181 16.4374 27.2756 16.5634C27.4646 16.6579 27.622 16.7839 27.748 16.9099C27.874 17.0358 27.9685 17.1933 28.0315 17.3823C28.0945 17.5398 28.126 17.7602 28.126 17.9807C28.126 18.2957 28.063 18.5477 27.937 18.7681C27.811 18.9886 27.6535 19.1461 27.4331 19.3036C27.2126 19.4295 26.9921 19.524 26.7087 19.587C26.4252 19.65 26.1417 19.6815 25.8583 19.6815C25.5433 19.6815 25.2598 19.65 24.9764 19.587C24.6929 19.524 24.4409 19.4925 24.2205 19.3665Z" fill="#926D57"/>
</g>
</g>
<defs>
<clipPath id="clip0_15_47">
<rect width="40" height="41" fill="white"/>
</clipPath>
</defs>
</svg>
