<svg width="14" height="14" viewBox="0 0 14 14" fill="none" xmlns="http://www.w3.org/2000/svg">
<g clip-path="url(#clip0_104_56)">
<path d="M13.6081 4.75799L9.32561 4.13573L7.4104 0.255134C7.24289 -0.0843115 6.75724 -0.0844756 6.5896 0.255134L4.67444 4.13573L0.392 4.75799C0.0174729 4.81243 -0.132945 5.27422 0.13836 5.53863L3.23714 8.55924L2.50559 12.8244C2.47611 12.9961 2.54669 13.1696 2.68767 13.272C2.8286 13.3744 3.01541 13.3879 3.16963 13.3068L7 11.2931C11.1701 13.4854 10.8837 13.3594 11.0433 13.3594C11.3254 13.3594 11.5426 13.1051 11.4944 12.8244L10.7629 8.55924L13.8617 5.53863C14.1327 5.27441 13.9829 4.81249 13.6081 4.75799Z" fill="#F7AC16"/>
<path d="M7.00003 0C6.82547 0 6.66654 0.0992304 6.58957 0.255117L4.67441 4.13572L0.392 4.75798C0.0174729 4.81242 -0.132945 5.2742 0.13836 5.53861L3.23714 8.55922L2.50559 12.8244C2.47611 12.9961 2.54669 13.1696 2.68767 13.272C2.8286 13.3744 3.01541 13.3879 3.16963 13.3068L7 11.2931L7.00003 0Z" fill="#F2D422"/>
<path d="M0.392 4.75803C0.0174729 4.81247 -0.132945 5.27425 0.13836 5.53867L3.23714 8.55928L2.50559 12.8244C2.47611 12.9961 2.54669 13.1696 2.68767 13.2721C2.8286 13.3744 3.01541 13.3879 3.16963 13.3069L7 11.2932C11.1701 13.4855 10.8837 13.3595 11.0433 13.3595C11.1382 13.3595 11.2326 13.33 11.3123 13.2721L4.67441 4.13574L0.392 4.75803Z" fill="#F7AC16"/>
<path d="M4.88245 8.0324C1.56308 4.79679 1.70576 4.9702 1.66122 4.80239C1.64309 4.73499 1.63937 4.65657 1.65908 4.57385L0.392 4.75796C0.0174729 4.8124 -0.132945 5.27418 0.13836 5.53859L3.23714 8.5592L2.50559 12.8244C2.47611 12.9961 2.54669 13.1696 2.68767 13.272C2.8286 13.3744 3.01541 13.3879 3.16963 13.3068L4.29584 12.7147C4.17998 12.6104 4.12415 12.4533 4.15089 12.2975L4.88245 8.0324Z" fill="#F48B19"/>
<path d="M0.138138 5.53862L3.23692 8.55923L2.50537 12.8244C2.47589 12.9961 2.54647 13.1696 2.68745 13.272C2.82838 13.3744 3.01519 13.3879 3.16941 13.3068L6.99978 11.2931C11.1699 13.4854 10.8834 13.3594 11.0431 13.3594C11.3251 13.3594 11.5423 13.1051 11.4942 12.8244L10.7627 8.55923L0.0222826 5.06946C-0.0312292 5.26127 0.0223373 5.4258 0.138138 5.53862Z" fill="#F2D422"/>
<path d="M0.138138 5.53862L3.23692 8.55923L2.50537 12.8244C2.47589 12.9961 2.54647 13.1696 2.68745 13.272C2.82838 13.3744 3.01519 13.3879 3.16941 13.3068L4.29562 12.7147C4.17976 12.6104 4.12393 12.4533 4.15067 12.2975L4.88222 8.0324L2.75275 5.95665L0.0222826 5.06946C-0.0312292 5.26127 0.0223373 5.4258 0.138138 5.53862Z" fill="#EFB616"/>
<path d="M2.50563 12.8243C2.47616 12.9961 2.54673 13.1696 2.68772 13.272C2.82865 13.3744 3.01546 13.3879 3.16968 13.3068L7.00004 11.2931C11.1701 13.4854 10.8837 13.3594 11.0433 13.3594C11.3254 13.3594 11.5426 13.1051 11.4945 12.8243L10.7629 8.5592L13.8617 5.53859C13.9865 5.417 14.0313 5.23511 13.9775 5.06946L3.23719 8.5592L2.50563 12.8243Z" fill="#F7AC16"/>
<path d="M2.50563 12.8244C2.47616 12.9961 2.54673 13.1696 2.68772 13.272C2.82865 13.3744 3.01546 13.3879 3.16968 13.3069L4.29588 12.7148C4.18003 12.6104 4.12419 12.4534 4.15094 12.2976L4.88249 8.03244L4.8765 8.02661L3.23719 8.55927L2.50563 12.8244Z" fill="#F48B19"/>
<path d="M3.16949 13.3068L6.99983 11.2932C11.1699 13.4854 10.8835 13.3594 11.0431 13.3594C11.3252 13.3594 11.5424 13.1051 11.4942 12.8244L10.7627 8.55925L13.8615 5.53864C14.1325 5.27442 13.9827 4.8125 13.6079 4.758L9.32541 4.13574L2.6875 13.272C2.82843 13.3744 3.01524 13.3879 3.16949 13.3068Z" fill="#F2D422"/>
<path d="M13.9774 5.06946L6.99983 7.33658L2.6875 13.272C2.82843 13.3744 3.01524 13.3879 3.16946 13.3068L6.99983 11.2931C11.1699 13.4854 10.8835 13.3594 11.0431 13.3594C11.3252 13.3594 11.5424 13.1051 11.4942 12.8244L10.7627 8.55923L13.8615 5.53862C13.9863 5.417 14.0311 5.23513 13.9774 5.06946Z" fill="#F7AC16"/>
<path d="M10.7627 8.5592L6.99983 7.33655L2.6875 13.272C2.82843 13.3743 3.01524 13.3879 3.16946 13.3068L6.99983 11.2931C11.1699 13.4854 10.8835 13.3594 11.0431 13.3594C11.3252 13.3594 11.5424 13.1051 11.4942 12.8243L10.7627 8.5592Z" fill="#F2D422"/>
<path d="M2.6875 13.272C2.82843 13.3743 3.01524 13.3879 3.16946 13.3068L6.99983 11.2931C11.1699 13.4854 10.8835 13.3594 11.0431 13.3594C11.138 13.3594 11.2324 13.3299 11.3122 13.272L6.99983 7.33655L2.6875 13.272Z" fill="#F7AC16"/>
<path d="M6.99986 7.3366L2.6875 13.272C2.82843 13.3743 3.01524 13.3879 3.16946 13.3068L6.99983 11.2931L6.99986 7.3366Z" fill="#F2D422"/>
<path d="M4.3841 10.9369L2.6875 13.272C2.82843 13.3744 3.01524 13.3879 3.16946 13.3069L4.29567 12.7148C4.17981 12.6104 4.12398 12.4534 4.15072 12.2976L4.3841 10.9369Z" fill="#EFB616"/>
</g>
<defs>
<clipPath id="clip0_104_56">
<rect width="14" height="14" fill="white"/>
</clipPath>
</defs>
</svg>
